<svg xmlns="http://www.w3.org/2000/svg" version="1.2" preserveAspectRatio="none" viewBox="0 0 71.72 79.97" class="ng-element" data-id="6e3c2df7daba42e398a64718663cf3c8"><g id="0e4ab1c0-002d-4624-97c7-4849043ae8cd_1578488031634"><g id="9cd961de-09b1-4f83-9023-6b528416b72c_1578488031634"><g><path fill="#f58120" d="M69.18,48.91,0,67.08l1.82-1.9c.06-.06,6.17-6.55,5.36-15.43a46.54,46.54,0,0,0-1.29-5.83C2.85,32.1-3.48,7.48,21,1.06S52.05,19.17,55.22,31A46.5,46.5,0,0,0,57,36.68c3.65,8.14,12.16,10.78,12.25,10.81l2.51.75ZM5.27,64.16,65.34,48.39c-3-1.37-6.94-4.89-9.73-11.11a44.4,44.4,0,0,1-1.82-5.93c-3.28-12.2-9.6-35.8-32.65-29.74S4.18,31.32,7.33,43.55a48.1,48.1,0,0,1,1.32,6.06C9.28,56.4,7.18,61.51,5.27,64.16Z" vector-effect="non-scaling-stroke"></path><path fill="#f58120" d="M22.55,61.16s3.12,7,14,4.18S46.89,54.77,46.89,54.77Z" vector-effect="non-scaling-stroke"></path><path fill="#f58120" d="M28,71.92a63,63,0,0,0,6.29-1.14c2-.51,4.07-1.06,6-1.75a38.47,38.47,0,0,0,11.16-5.76A15.82,15.82,0,0,1,46.85,68a24.38,24.38,0,0,1-5.92,2.93,29.45,29.45,0,0,1-6.42,1.4A19.16,19.16,0,0,1,28,71.92Z" vector-effect="non-scaling-stroke"></path><path fill="#f58120" d="M24.3,79.86c3.25-.51,6.44-1.17,9.59-1.91s6.28-1.61,9.35-2.61a89.77,89.77,0,0,0,17.81-7.72c-4.81,4.55-10.94,7.57-17.21,9.6A53,53,0,0,1,24.3,79.86Z" vector-effect="non-scaling-stroke"></path></g></g></g></svg>