<svg xmlns="http://www.w3.org/2000/svg" version="1.2" preserveAspectRatio="none" viewBox="0 0 56.46 73.77" class="ng-element" data-id="ff5e3ea8e1914c6ab6c461b95499f979"><g id="679382ea-126c-4a11-b964-bdddf3f25eac_1578488031634"><g id="0542653a-ca1f-42ef-9fb1-d05507762fe1_1578488031634"><g><path fill="#f58120" d="M.71,32.11a40.66,40.66,0,0,0,7.47-6.18A48.35,48.35,0,0,0,14,18.26a65.11,65.11,0,0,0,4.42-8.59A62.52,62.52,0,0,0,21.6.59L21.75,0h.58a7.87,7.87,0,0,1,6.84,4.1C30.52,6.62,30.3,9.49,30,12a64.59,64.59,0,0,1-3.25,14.85l-1.1-1.46a72.86,72.86,0,0,1,10.55,0A46.17,46.17,0,0,1,46.7,27.15a21.91,21.91,0,0,1,5,2.21,10.68,10.68,0,0,1,4.14,4,6.42,6.42,0,0,1-.34,6.11,13.62,13.62,0,0,1-4,4.14l0-2.08a7.62,7.62,0,0,1,2.26,2.63,7.51,7.51,0,0,1,.89,3.32,9.39,9.39,0,0,1-.58,3.28,14.33,14.33,0,0,1-1.48,2.83l-.13-1.52a5.56,5.56,0,0,1,1.32,3.11,6.44,6.44,0,0,1-.51,3.16,12.56,12.56,0,0,1-3.59,4.55l0-1.75a5,5,0,0,1,1.36,4.29,7.78,7.78,0,0,1-1.88,3.68,15.92,15.92,0,0,1-2.85,2.5,8.65,8.65,0,0,1-3.61,1.61c-5,.95-9.74.39-14.47-.15a221.69,221.69,0,0,1-27.79-6L0,67v-.53L.32,49.16Zm.77.42L1.09,49.37l.32,17.05-.52-.67A218.72,218.72,0,0,0,28.56,71c4.61.48,9.4,1,13.72.07,3.57-.79,8.43-5.68,5.9-8.2L47.25,62l1-.84a10.08,10.08,0,0,0,2.9-3.66,4.08,4.08,0,0,0,.33-2,3.34,3.34,0,0,0-.68-1.69l-.63-.73.5-.79A11.92,11.92,0,0,0,51.81,50a6.91,6.91,0,0,0,.42-2.38,5.06,5.06,0,0,0-.62-2.21,5.6,5.6,0,0,0-1.46-1.74l-1.42-1.09,1.44-1a11.35,11.35,0,0,0,3.2-3.28,4,4,0,0,0,.31-3.81,8.62,8.62,0,0,0-3.23-3.1,20,20,0,0,0-4.46-2,43.82,43.82,0,0,0-9.93-1.8,70.89,70.89,0,0,0-10.2-.06l-1.7.11.6-1.57a68.66,68.66,0,0,0,3.4-14.33c.34-2.4.54-4.83-.49-6.83a6.27,6.27,0,0,0-5.34-3.36l.73-.58a62.86,62.86,0,0,1-8.28,17.8,49.08,49.08,0,0,1-6.25,7.54C6.2,28.6,4.3,30.88,1.48,32.53Z" vector-effect="non-scaling-stroke"></path><path fill="#f58120" d="M50.73,43.85c-3.89-.77-7.82-1.52-11.79-2,4-.38,8-.47,12-.52Z" vector-effect="non-scaling-stroke"></path><polygon fill="#f58120" points="51.63 54.2 38.94 52.95 51.63 51.69 51.63 54.2" vector-effect="non-scaling-stroke"></polygon><polygon fill="#f58120" points="48.86 63.28 38.94 61.12 49.09 60.79 48.86 63.28" vector-effect="non-scaling-stroke"></polygon></g></g></g></svg>