<svg xmlns="http://www.w3.org/2000/svg" version="1.2" preserveAspectRatio="none" viewBox="0 0 69.48 87.57" class="ng-element" data-id="62aa5a8c11254bbd95d4aa3a8174bac7"><g id="e82bb328-45aa-418c-85d1-f039e00f581a_1578488031632"><g id="4120b68d-6226-4ed3-afdc-97adfa7864ae_1578488031632"><g><path fill="#f58120" d="M3.45,28a42.84,42.84,0,0,0-2.2,6.68,23.82,23.82,0,0,1,1.69,3.11,42.23,42.23,0,0,1,2.51-8.88A10,10,0,0,1,3.45,28Zm2,.91a10,10,0,0,1-2-.91,42.84,42.84,0,0,0-2.2,6.68,23.82,23.82,0,0,1,1.69,3.11A42.23,42.23,0,0,1,5.45,28.89ZM2.53,40.67a24.87,24.87,0,0,0-1.69-4A46.29,46.29,0,0,0,0,45.42,42.26,42.26,0,0,0,2.37,59a25.6,25.6,0,0,0,1.21-4.13,35.82,35.82,0,0,1-1.3-9.4A46.77,46.77,0,0,1,2.53,40.67ZM59.09,35.3c-.11-.59-.27-1.21-.43-1.78-2.85-10.66-9.43-19.19-17.8-23.19A24.63,24.63,0,0,0,30.4,7.85h-.29c-10.39,0-19.57,6.59-25,16.61A34.57,34.57,0,0,0,3.45,28a42.84,42.84,0,0,0-2.2,6.68c-.15.67-.29,1.33-.41,2A46.29,46.29,0,0,0,0,45.42,42.26,42.26,0,0,0,2.37,59c.25.75.53,1.51.85,2.24C8.86,75.64,20.91,87.57,30.11,87.57c8.94,0,20.56-11.25,26.38-25.15.32-.68.59-1.37.85-2.08a43.18,43.18,0,0,0,2.87-14.92A45.69,45.69,0,0,0,59.09,35.3Zm-3,21.44c-.25.84-.55,1.69-.87,2.51-5.15,13.53-16.64,24.67-25.1,24.67-8.79,0-20.82-12-25.68-26.2v0c-.32-1-.6-1.9-.85-2.88a35.82,35.82,0,0,1-1.3-9.4,46.77,46.77,0,0,1,.25-4.75c.09-1,.23-1.94.41-2.9a42.23,42.23,0,0,1,2.51-8.88,26.1,26.1,0,0,1,1.12-2.6C11.5,16,20.2,9,30.11,9,43,9,53.82,20.9,57,36.24c.18.8.32,1.6.43,2.4a43.28,43.28,0,0,1,.53,6.78A38.1,38.1,0,0,1,56.08,56.74ZM2.28,45.42a46.77,46.77,0,0,1,.25-4.75,24.87,24.87,0,0,0-1.69-4A46.29,46.29,0,0,0,0,45.42,42.26,42.26,0,0,0,2.37,59a25.6,25.6,0,0,0,1.21-4.13A35.82,35.82,0,0,1,2.28,45.42ZM3.45,28a42.84,42.84,0,0,0-2.2,6.68,23.82,23.82,0,0,1,1.69,3.11,42.23,42.23,0,0,1,2.51-8.88A10,10,0,0,1,3.45,28Z" vector-effect="non-scaling-stroke"></path><path fill="#f58120" d="M42.09,67.19a17.44,17.44,0,0,1-24,0A46.91,46.91,0,0,0,42.09,67.19Z" vector-effect="non-scaling-stroke"></path><path fill="#f58120" d="M35.42,29.42c0,5.88.69,14.35-5.31,14.35s-5.32-8.47-5.32-14.35c0-5.21-1.53-7.74-1.9-8.29.39.27,2,1.85,2.61,7.1.66,5.66-.19,13.58,4.61,13.58s4-7.92,4.61-13.58c.59-5.25,2.21-6.83,2.6-7.1C37,21.68,35.42,24.21,35.42,29.42Z" vector-effect="non-scaling-stroke"></path><path fill="#f58120" d="M30.11,7.77S34.47-1.45,48.52.2c12.36,1.45,10.82,12.53,21,13.89,0,0-10.39,1.87-15.68-4.77-4.18-5.26-11.67-2-13,1.19Z" vector-effect="non-scaling-stroke"></path><rect fill="#f58120" height="2.28" width="10.55" y="49.41" x="14.95" vector-effect="non-scaling-stroke"></rect><rect fill="#f58120" height="2.28" width="10.57" y="49.41" x="34.72" vector-effect="non-scaling-stroke"></rect></g></g></g></svg>