<svg xmlns="http://www.w3.org/2000/svg" version="1.2" preserveAspectRatio="none" viewBox="0 0 60.28 87.15" class="ng-element" data-id="93de46b7b5de412a8e512d1a048e3e32"><g id="58f85e66-2210-4e7b-a9ff-87c274381a38_1578488031633"><g id="9f60a92f-fec1-4713-b6ef-2914f3c84b3e_1578488031633"><g><path fill="#f58120" d="M59.39,69.56l-23,.38L13,70.59l-.56-.35v-.68c-.12-11.45-.22-22.9-.23-34.34L12,.88v0h1L59.39,0h.89V.88l-.36,34.55Zm0,0L58.87,35,58.51.88l.88.88-46.32.15,1-1L14,35.22c0,11.44-.11,22.89-.23,34.34l-.68-.68,23,.29Z" vector-effect="non-scaling-stroke"></path><path fill="#f58120" d="M13.07.88A16.8,16.8,0,0,0,4.4,3.4,6.82,6.82,0,0,0,1.79,6.86a13.33,13.33,0,0,0-.28,4.45l.28,18.47C2,42.09,2,54.41,2,66.72V76c0,.75,0,1.59,0,2.27l.09,1,.27,1a6.24,6.24,0,0,0,2.49,3,16,16,0,0,0,8.3,2.11l9.24,0c12.31.17,24.63.28,36.94.62l-.26.26.26-9.45.27,9.45v.26h-.27c-12.31.33-24.62.44-36.93.61l-9.23,0a17.74,17.74,0,0,1-9.38-2.34,8.16,8.16,0,0,1-3.29-4L.19,79.6.07,78.31C0,77.45,0,76.74,0,76V66.72c.1-12.31,0-24.63.26-36.94L.56,11.31A14.09,14.09,0,0,1,1.1,6.62,7.39,7.39,0,0,1,4.11,3,16.31,16.31,0,0,1,13.07.88Z" vector-effect="non-scaling-stroke"></path><path fill="#f58120" d="M2.06,77.89H0A7.89,7.89,0,0,1,2.37,72c3.71-3.62,10.45-3.5,10.72-3.52l0,2.07c-.07,0-6.16-.09-9.24,2.93A5.8,5.8,0,0,0,2.06,77.89Z" vector-effect="non-scaling-stroke"></path><path fill="#f58120" d="M25.2,47.93l-1.75-1.09c2.21-3.55,7-7.21,9.66-9.09A29.41,29.41,0,0,1,26.71,35a29.69,29.69,0,0,1-7.25,5.26l-.93-1.84A28.79,28.79,0,0,0,25,33.78c-2-1.56-3.42-3.56-3.42-6.07,0-5.08,3.09-5.63,4.42-5.63,1,0,4.32.4,4.32,5.51a9.67,9.67,0,0,1-2.22,5.79,29,29,0,0,0,7.68,2.95l.34,1.88C36,38.26,28.05,43.37,25.2,47.93ZM26,24.14c-.64,0-2.35,0-2.35,3.57,0,1.76,1.13,3.28,2.74,4.53a7.72,7.72,0,0,0,1.87-4.65C28.25,25.3,27.49,24.14,26,24.14Z" vector-effect="non-scaling-stroke"></path><rect fill="#f58120" height="2.06" width="17.28" y="26.67" x="31.81" vector-effect="non-scaling-stroke"></rect><rect fill="#f58120" height="20.24" width="2.06" y="27.7" x="34.52" vector-effect="non-scaling-stroke"></rect><path fill="#f58120" d="M46.19,47.94H44.13V27.7c0-.53-.15-5.2-4.36-5.2-2.52,0-3.19,3.4-3.19,5.2H34.52c0-3.5,1.64-7.26,5.25-7.26,5.08,0,6.42,4.75,6.42,7.26Z" vector-effect="non-scaling-stroke"></path></g></g></g></svg>